<?xml version="1.0" encoding="utf-8"?>
<!-- Generator: Adobe Illustrator 26.1.0, SVG Export Plug-In . SVG Version: 6.00 Build 0)  -->
<svg version="1.1" id="Layer_1" xmlns="http://www.w3.org/2000/svg" xmlns:xlink="http://www.w3.org/1999/xlink" x="0px" y="0px"
	 viewBox="0 0 480.5 150" style="enable-background:new 0 0 480.5 150;" xml:space="preserve">
<style type="text/css">
	.Graphic_x0020_Style_x0020_4{fill:url(#SVGID_1_);}
	.Graphic_x0020_Style{fill:url(#SVGID_00000137828117351648321530000002242240539763479998_);}
	.st0{fill:#231F20;}
	.st1{fill:#D98921;}
	.st2{fill:url(#SVGID_00000125604470217704373140000008946424297366437537_);}
	.st3{fill:url(#SVGID_00000170961574288482087480000013759515288967579303_);}
	.st4{fill:url(#SVGID_00000143610484304136881130000005598221067942799238_);}
	.st5{opacity:0.3;fill:#FFFFFF;}
</style>
<linearGradient id="SVGID_1_" gradientUnits="userSpaceOnUse" x1="-714.4019" y1="-492.4738" x2="-714.4019" y2="-493.4738">
	<stop  offset="0.5" style="stop-color:#F9F1A7"/>
	<stop  offset="0.5" style="stop-color:#F9F5E3"/>
</linearGradient>
<linearGradient id="SVGID_00000047741228505596173050000003830333731290548625_" gradientUnits="userSpaceOnUse" x1="-714.4019" y1="-492.4738" x2="-714.4019" y2="-493.4738">
	<stop  offset="0.1212" style="stop-color:#FF7300"/>
	<stop  offset="0.5" style="stop-color:#FF8C0C"/>
	<stop  offset="0.5" style="stop-color:#FF9F0E"/>
	<stop  offset="1" style="stop-color:#FFB11B"/>
</linearGradient>
<g id="logo_00000030488877929709793370000004755520305841715120_">
	<path class="st0" d="M181.7,128.1h-1.1l-9.5-16.5H157v38.3h11v-20.2h1.2l12,20.2l12-20.2h1.1v20.2h11v-38.3h-14.1L181.7,128.1z
		 M285.7,111.6V150h11v-12.1l0.6-0.6h5l0.5,0.3l8.4,12.5H323l-7.8-11.7v-0.6l0.5-0.3l3-0.3l4.8-4.5v-17.2l-3.8-3.7H285.7z
		 M312.4,128.1l-1,1h-14.1l-0.6-0.6v-7.9l0.6-0.6h13.9l1.1,1.2L312.4,128.1z M112.6,149.9h33.8v-8.7h-22.3l-0.6-0.6v-5.1l0.6-0.6
		l19.5,0v-8.5h-19.5l-0.6-0.6v-5.2l0.6-0.6h22.2v-8.2h-33.8V149.9z M345.2,140.6v-5.1l0.7-0.6h19.2v-8.5h-19.2l-0.7-1v-5l0.7-0.6h22
		v-8.2h-33.6v38.3h33.7v-8.7h-22.1L345.2,140.6z M215.9,111.6V150h11v-11.6l0.6-0.6h21.8l4.6-4v-18.5l-4-3.6H215.9z M242.6,128.1
		l-2.2,1.3h-12.8l-0.6-0.6v-8.3l0.6-0.6h13.1l1.9,1.4L242.6,128.1z M264.4,111.6h10.8v38.3h-10.8V111.6z"/>
	<path class="st1" d="M181.7,126.5h-1.1l-9.5-16.5H157v38.3h11v-20.2h1.2l12,20.2l12-20.2h1.1v20.2h11V110h-14.1L181.7,126.5z
		 M285.7,110v38.4h11v-12.1l0.6-0.6h5l0.5,0.3l8.4,12.5H323l-7.8-11.7v-0.6l0.5-0.3l3-0.3l4.8-4.5v-17.2l-3.8-3.7H285.7z
		 M312.4,126.5l-1,1h-14.1l-0.6-0.6V119l0.6-0.6h13.9l1.1,1.2L312.4,126.5z M112.6,148.3h33.8v-8.7h-22.3l-0.6-0.6v-5.1l0.6-0.6
		l19.5,0v-8.5h-19.5l-0.6-0.6v-5.2l0.6-0.6h22.2V110h-33.8V148.3z M345.2,139v-5.1l0.7-0.6h19.2v-8.5h-19.2l-0.7-1v-5l0.7-0.6h22
		V110h-33.6v38.3h33.7v-8.7h-22.1L345.2,139z M215.9,110v38.4h11v-11.6l0.6-0.6h21.8l4.6-4v-18.5l-4-3.6H215.9z M242.6,126.5
		l-2.2,1.3h-12.8l-0.6-0.6v-8.3l0.6-0.6h13.1l1.9,1.4L242.6,126.5z M264.4,110h10.8v38.3h-10.8V110z"/>
	
		<linearGradient id="SVGID_00000063619162398285032500000015100133313116380334_" gradientUnits="userSpaceOnUse" x1="240.2662" y1="146.7742" x2="240.2662" y2="108.4032">
		<stop  offset="0.5" style="stop-color:#F9F1A7"/>
		<stop  offset="0.5" style="stop-color:#F9F5E3"/>
	</linearGradient>
	<path style="fill:url(#SVGID_00000063619162398285032500000015100133313116380334_);" d="M181.7,124.9h-1.1l-9.5-16.5H157v38.3h11
		v-20.2h1.2l12,20.2l12-20.2h1.1v20.2h11v-38.3h-14.1L181.7,124.9z M285.7,108.4v38.4h11v-12.1l0.6-0.6h5l0.5,0.3l8.4,12.5H323
		l-7.8-11.7v-0.6l0.5-0.3l3-0.3l4.8-4.5v-17.2l-3.8-3.7H285.7z M312.4,124.9l-1,1h-14.1l-0.6-0.6v-7.9l0.6-0.6h13.9l1.1,1.2
		L312.4,124.9z M112.6,146.7h33.8V138h-22.3l-0.6-0.6v-5.1l0.6-0.6l19.5,0v-8.5h-19.5l-0.6-0.6v-5.2l0.6-0.6h22.2v-8.2h-33.8V146.7z
		 M345.2,137.3v-5.1l0.7-0.6h19.2v-8.5h-19.2l-0.7-1v-5l0.7-0.6h22v-8.2h-33.6v38.3h33.7V138h-22.1L345.2,137.3z M215.9,108.4v38.4
		h11v-11.6l0.6-0.6h21.8l4.6-4V112l-4-3.6H215.9z M242.6,124.9l-2.2,1.3h-12.8l-0.6-0.6v-8.3l0.6-0.6h13.1l1.9,1.4L242.6,124.9z
		 M264.4,108.4h10.8v38.3h-10.8V108.4z"/>
	<path class="st0" d="M235.9,25.9H285l18.1-18.3h-31.5l0.9,7.5h-12.8l3.5-11.8H238h-20.3l0.7,11.8H202l0.7-9.5h-25.2l13.2,20.3
		H235.9z"/>
	<path class="st1" d="M235.9,24.3H285L303.2,6h-31.5l0.9,7.5h-12.8l3.5-11.8H238h-20.3l0.7,11.8H202l0.7-9.5h-25.2l13.2,20.3H235.9z
		"/>
	
		<linearGradient id="SVGID_00000062887902402693401610000017838835053879087019_" gradientUnits="userSpaceOnUse" x1="240.2742" y1="22.6452" x2="240.2742" y2="0">
		<stop  offset="0.5" style="stop-color:#F9F1A7"/>
		<stop  offset="0.5" style="stop-color:#F9F5E3"/>
	</linearGradient>
	<path style="fill:url(#SVGID_00000062887902402693401610000017838835053879087019_);" d="M235.9,22.6H285l18.1-18.3h-31.5l0.9,7.5
		h-12.8L263.2,0H238h-20.3l0.7,11.8H202l0.7-9.5h-25.2l13.2,20.3H235.9z"/>
	
		<linearGradient id="SVGID_00000060718191048754042100000005780101140068058541_" gradientUnits="userSpaceOnUse" x1="240.2742" y1="92.2903" x2="240.2742" y2="30.1935">
		<stop  offset="0.1212" style="stop-color:#FF7300"/>
		<stop  offset="0.5" style="stop-color:#FF8C0C"/>
		<stop  offset="0.5" style="stop-color:#FF9F0E"/>
		<stop  offset="1" style="stop-color:#FFB11B"/>
	</linearGradient>
	<path style="fill:url(#SVGID_00000060718191048754042100000005780101140068058541_);" d="M349.7,74.5l-1-27.1l27.5-0.4l1.9,7.5h-20
		L357.9,67l46.3,2.1l-11.8-38.9h-34.8l-11.1,8l-4.3-8h-17.8l5.6,62.1h51.2l11.8-15.7L349.7,74.5z M454.6,30.2l-7,25h-11.4l-6.2-25
		h-28.2l8.6,35.9l36.5,5.1l-2,4.9l-43.4,4.1l-10.7,12.1H460l20.6-62.1H454.6z M46.8,30.3l-4.4,23.9l-16.1-24L0,30.3l14,62h17.6
		l-3-31.6L46.8,82l7.8-22.7l8,33h20.3l-9.7-62.1L46.8,30.3z M231.1,30.3h-24.2l2.3,29l-23.4-29.1h-21.1l-7.9,62.1H180l3.5-31
		l27.2,31h25.7L231.1,30.3z M83.2,30.2l7.5,62.1h56l9.2-62.1L83.2,30.2z M127.9,75.4h-17.7l-1.2-29.2H130L127.9,75.4z M319.9,30.2
		h-32.2l-4.3,17.6l-15,5l0.4-22.4h-29l7.5,62h20.5l0.3-19.2l13-4.9l11.5,24.1h32.9l-24.1-33.5L319.9,30.2z"/>
	<path class="st5" d="M270.1,52.2l13.3-4.4l4.3-17.6h32.2l-1,1.6h-29.5l-4.3,17.6l-15,5L270.1,52.2z M1.6,31.9l25.8-0.1l-1.1-1.6
		L0,30.3l14,62h1.2L1.6,31.9z M210.8,60.9l-2.3-29h22.8l-0.1-1.6h-24.2l2.3,28.5L210.8,60.9z M44,55.8l4.4-23.9l25-0.1l-0.3-1.6
		l-26.4,0.1l-4.3,23.3L44,55.8z M411.6,66.2l-8.2-34.4h27l-0.4-1.6h-28.2l8.6,35.9L411.6,66.2z M30.3,62.3l0,0.3L46.8,82l0.1-0.2
		L30.3,62.3z M437.8,56.9h11.4l7-25H480l0.5-1.6h-26l-7,25h-10.2L437.8,56.9z M376.6,48.6l1.5,5.9h-20L357.9,67l1.6,0.1l0.2-10.9h20
		l-1.9-7.5L376.6,48.6z M348,39.8l11.1-8h33.7l-0.5-1.6h-34.8l-10.6,7.6L348,39.8z M351.2,74.6l0.1,1.5l40.5,1.9l1.1-1.5L351.2,74.6
		z M56.2,60.9L55.5,63l7.1,29.3h1.2L56.2,60.9z M326,31.8h17l-0.9-1.6h-17.8l5.6,62.1h1.5L326,31.8z M403,81.8l43.4-4.1l2-4.9
		l-2.1-0.3l-1.5,3.6l-43.4,4.1l-10.7,12.1h3L403,81.8z M241.5,31.9h27.4l0-1.6h-29l7.5,62h1.4L241.5,31.9z M282.7,69.8l-0.7,0.3
		l10.6,22.2h0.8L282.7,69.8z M84.8,31.8h70.9l0.2-1.6H83.2l7.5,62.1H92L84.8,31.8z M129.5,77l2.1-29.2h-1.7l-2,27.6h-16.2l0.1,1.6
		H129.5z M166.4,31.8h20.7l-1.3-1.6h-21.1l-7.9,62.1h1.8L166.4,31.8z M185,62.9l0,0.2l25.7,29.2h0.2L185,62.9z"/>
</g>
</svg>
