<?xml version="1.0" ?><!-- Uploaded to: SVG Repo, www.svgrepo.com, Generator: SVG Repo Mixer Tools -->
<svg fill="#000000" width="800px" height="800px" viewBox="0 0 200 200" data-name="Layer 1" id="Layer_1" xmlns="http://www.w3.org/2000/svg"><title/><path d="M183.25,52.75a18.22,18.22,0,0,0-7-1h-91c-3.5,0-8-.5-11.5.5a9.64,9.64,0,0,0-7.5,9.5,10,10,0,0,0,10,10h90.5l-8,42a10.22,10.22,0,0,1-10,8h-75a10.66,10.66,0,0,1-10-8l-16-74a20.3,20.3,0,0,0-19.5-16h-7a10,10,0,0,0,0,20h7l16,74c3,14,15,23.5,29.5,23.5h75c12,0,24.5-8,28-19.5,2.5-8,4-17,5.5-25,1.5-8.5,3.5-17,5-25a17.76,17.76,0,0,0,1-5,17,17,0,0,0,.5-5c0-4-2-8-5.5-9Zm-132,108.5a15,15,0,0,0,30,0h0a15,15,0,0,0-30,0Zm90,0a15,15,0,1,0,15-15,15,15,0,0,0-15,15v0Z"/></svg>