<?xml version="1.0" standalone="no"?>
<!DOCTYPE svg PUBLIC "-//W3C//DTD SVG 20010904//EN"
 "http://www.w3.org/TR/2001/REC-SVG-20010904/DTD/svg10.dtd">
<svg version="1.0" xmlns="http://www.w3.org/2000/svg"
 width="1280.000000pt" height="1242.000000pt" viewBox="0 0 1280.000000 1242.000000"
 preserveAspectRatio="xMidYMid meet">
<g transform="translate(0.000000,1242.000000) scale(0.100000,-0.100000)"
fill="#000000" stroke="none">
<path d="M5685 12060 c-497 -10 -1010 -45 -1540 -106 -285 -32 -654 -85 -810
-114 -45 -9 -145 -27 -280 -50 -131 -23 -469 -99 -561 -127 l-51 -15 -104 55
c-154 80 -282 122 -480 157 -148 26 -518 29 -626 5 -169 -38 -268 -75 -399
-150 -94 -54 -276 -236 -331 -330 -88 -152 -126 -305 -127 -515 0 -144 8 -209
46 -369 164 -687 791 -1550 1843 -2537 94 -87 191 -178 218 -200 26 -23 47
-46 47 -52 0 -6 -16 -41 -35 -79 -108 -214 -77 -440 85 -605 51 -51 87 -77
146 -105 78 -37 80 -37 209 -38 105 0 140 4 180 19 145 57 262 177 310 320 9
27 18 53 21 57 12 20 34 -8 65 -79 57 -133 217 -449 301 -596 108 -188 292
-461 424 -624 426 -532 910 -922 1500 -1208 138 -67 174 -89 174 -104 0 -11
-5 -20 -12 -20 -16 0 -76 -47 -88 -70 -8 -15 -7 -27 4 -48 24 -46 87 -79 200
-106 27 -6 54 -19 60 -29 9 -15 4 -23 -32 -54 -134 -112 -240 -332 -257 -532
-3 -41 -7 -77 -9 -80 -2 -3 2 -53 10 -111 32 -263 150 -464 341 -587 70 -44
72 -69 6 -78 -87 -11 -187 -38 -245 -67 -140 -68 -93 -159 110 -214 56 -16 62
-20 62 -43 0 -43 -130 -160 -265 -239 -85 -49 -228 -103 -350 -132 -49 -11
-101 -24 -115 -29 -14 -4 -50 -16 -80 -25 -449 -133 -1025 -399 -1345 -621
-181 -126 -311 -252 -354 -345 -25 -52 -26 -65 -29 -241 l-3 -187 28 -19 c53
-37 284 -115 493 -168 130 -33 190 -46 350 -79 103 -21 367 -63 470 -75 47 -6
137 -17 200 -26 451 -63 740 -84 1205 -91 728 -11 1124 19 1930 145 254 40
552 103 720 152 39 11 84 24 100 28 51 13 187 63 253 92 l62 28 0 194 0 194
-31 62 c-153 305 -1048 790 -1839 997 -319 83 -471 161 -617 317 -60 63 -67
93 -25 103 180 40 267 119 201 185 -41 41 -169 85 -302 105 -54 7 -46 28 33
82 223 151 340 385 340 682 0 246 -89 465 -249 612 -69 64 -68 83 8 99 182 38
247 135 136 202 -30 17 -45 33 -43 44 2 9 52 38 128 73 308 140 669 369 935
594 132 111 429 412 543 549 298 359 568 794 762 1231 60 136 71 140 119 43
60 -120 163 -215 286 -263 40 -15 75 -19 180 -19 129 1 131 1 209 38 59 28 95
54 146 105 163 166 195 394 85 605 -19 37 -35 73 -35 78 0 6 24 32 52 57 190
169 586 554 764 743 436 464 710 810 943 1192 257 422 401 842 401 1165 0 403
-204 727 -563 897 -197 94 -307 115 -592 115 -217 0 -313 -10 -485 -50 -122
-29 -303 -105 -398 -167 l-52 -35 -48 20 c-26 11 -69 23 -97 27 -27 4 -66 11
-86 16 -19 5 -62 13 -95 18 -32 5 -151 25 -264 44 -113 19 -254 43 -315 52
-60 9 -150 23 -200 30 -49 8 -115 17 -145 20 -30 4 -80 10 -110 15 -83 14
-455 58 -700 84 -860 90 -1696 124 -2625 106z m-3978 -706 c3 -8 -3 -25 -14
-37 -48 -54 -100 -159 -129 -262 -24 -84 -24 -258 0 -350 49 -191 190 -369
356 -453 126 -63 204 -82 335 -82 205 1 331 52 517 211 20 17 41 28 46 25 5
-3 13 -68 17 -143 4 -76 9 -151 10 -168 4 -41 14 -157 20 -235 48 -579 196
-1351 357 -1865 49 -157 56 -195 35 -195 -48 0 -146 86 -462 403 -389 391
-590 610 -886 962 -83 99 -265 332 -319 409 -19 27 -47 65 -61 85 -123 172
-264 401 -346 565 -148 294 -204 555 -158 731 48 184 196 312 435 375 47 12
96 26 110 31 46 14 130 11 137 -7z m9663 -23 c244 -71 387 -190 432 -361 31
-117 32 -171 3 -315 -14 -68 -56 -209 -75 -250 -5 -11 -18 -42 -30 -70 -91
-214 -311 -570 -529 -855 -316 -414 -657 -797 -1160 -1304 -236 -238 -327
-323 -360 -337 -66 -29 -70 -17 -33 98 44 137 119 409 148 538 7 33 21 92 30
130 9 39 18 81 21 95 2 14 10 54 18 90 40 193 92 510 119 730 40 326 52 457
63 688 3 87 11 149 18 159 14 19 13 20 110 -57 118 -94 259 -140 430 -140 172
0 328 55 456 161 165 138 253 328 253 549 0 160 -35 274 -125 410 -22 33 -37
65 -33 71 11 18 125 4 244 -30z"/>
</g>
</svg>
