<?xml version="1.0" encoding="iso-8859-1"?>
<!-- Uploaded to: SVG Repo, www.svgrepo.com, Generator: SVG Repo Mixer Tools -->
<svg height="800px" width="800px" version="1.1" id="Layer_1" xmlns="http://www.w3.org/2000/svg" xmlns:xlink="http://www.w3.org/1999/xlink" 
	 viewBox="0 0 511.984 511.984" xml:space="preserve">
<polygon style="fill:#F6BB42;" points="138.621,457.079 0,402.956 0,234.577 138.621,288.708 "/>
<polygon style="fill:#EDAB35;" points="138.621,457.079 277.258,402.956 277.258,234.577 138.621,288.708 "/>
<polygon style="fill:#FFCE54;" points="138.621,180.447 0,234.577 138.621,288.708 277.242,234.577 "/>
<g>
	<path style="fill:#434A54;" d="M146.167,225.611c4.156,4.164,4.156,10.921,0,15.085c-4.171,4.164-10.921,4.164-15.078,0
		c-4.171-4.164-4.171-10.921,0-15.085C135.246,221.447,141.996,221.447,146.167,225.611z"/>
	<path style="fill:#434A54;" d="M227.055,300.552c-4.156,4.188-4.156,10.938,0,15.094c4.172,4.156,10.921,4.156,15.078,0
		c4.172-4.156,4.172-10.906,0-15.094C237.977,296.395,231.227,296.395,227.055,300.552z"/>
	<path style="fill:#434A54;" d="M50.186,300.552c4.171,4.188,4.171,10.938,0,15.094c-4.156,4.156-10.906,4.156-15.078,0
		c-4.156-4.156-4.156-10.906,0-15.094C39.28,296.395,46.03,296.395,50.186,300.552z"/>
	<path style="fill:#434A54;" d="M103.513,374.893c4.156,4.188,4.156,10.938,0,15.094c-4.172,4.156-10.921,4.156-15.078,0
		c-4.172-4.156-4.172-10.906,0-15.094C92.591,370.737,99.341,370.737,103.513,374.893z"/>
	<path style="fill:#434A54;" d="M173.745,375.206c-4.172,4.156-4.172,10.906,0,15.094c4.156,4.156,10.906,4.156,15.078,0
		c4.156-4.188,4.156-10.938,0-15.094C184.651,371.05,177.901,371.05,173.745,375.206z"/>
	<path style="fill:#434A54;" d="M200.4,337.895c-4.172,4.156-4.172,10.904,0,15.061c4.156,4.188,10.906,4.188,15.078,0
		c4.172-4.156,4.172-10.904,0-15.061C211.306,333.708,204.556,333.708,200.4,337.895z"/>
</g>
<polygon style="fill:#F6BB42;" points="406.408,314.223 257.695,319.833 190.588,165.402 339.303,159.799 "/>
<polygon style="fill:#EDAB35;" points="406.408,314.223 511.984,209.322 444.877,54.904 339.303,159.799 "/>
<polygon style="fill:#FFCE54;" points="296.146,60.505 190.588,165.402 339.303,159.799 444.877,54.904 "/>
<g>
	<path style="fill:#434A54;" d="M321.584,98.231c5.453,2.188,8.109,8.398,5.922,13.867c-2.188,5.46-8.391,8.117-13.859,5.929
		c-5.469-2.195-8.125-8.398-5.938-13.866C309.896,98.692,316.115,96.035,321.584,98.231z"/>
	<path style="fill:#434A54;" d="M262.695,204.611c5.469,2.188,8.125,8.398,5.938,13.859c-2.188,5.469-8.391,8.125-13.859,5.938
		c-5.468-2.195-8.125-8.398-5.937-13.867C251.023,205.072,257.242,202.415,262.695,204.611z"/>
	<path style="fill:#434A54;" d="M345.269,262.069c5.469,2.188,8.125,8.398,5.938,13.859c-2.188,5.469-8.406,8.125-13.857,5.938
		c-5.469-2.188-8.125-8.406-5.938-13.867C333.599,262.53,339.803,259.874,345.269,262.069z"/>
	<path style="fill:#434A54;" d="M320.115,203.243c5.469,2.187,8.125,8.398,5.922,13.867c-2.188,5.461-8.391,8.117-13.859,5.93
		s-8.125-8.398-5.938-13.867C308.428,203.704,314.646,201.049,320.115,203.243z"/>
	<path style="fill:#434A54;" d="M287.865,263.429c5.469,2.195,8.125,8.398,5.938,13.875c-2.188,5.469-8.406,8.125-13.873,5.938
		c-5.469-2.203-8.125-8.406-5.922-13.883C276.195,263.897,282.396,261.241,287.865,263.429z"/>
	<path style="fill:#434A54;" d="M425.314,135.042c-2.203,5.46,0.453,11.671,5.922,13.866c5.469,2.188,11.688-0.469,13.875-5.937
		c2.188-5.461-0.469-11.671-5.938-13.867C433.705,126.917,427.502,129.574,425.314,135.042z"/>
	<path style="fill:#434A54;" d="M450.471,193.861c-2.188,5.468,0.469,11.679,5.938,13.866c5.469,2.195,11.67-0.461,13.857-5.929
		c2.203-5.468-0.453-11.671-5.922-13.867C458.877,185.743,452.674,188.4,450.471,193.861z"/>
	<path style="fill:#434A54;" d="M384.676,175.618c-2.188,5.469,0.469,11.672,5.938,13.867c5.469,2.188,11.67-0.469,13.857-5.93
		c2.188-5.469-0.469-11.679-5.92-13.867C393.082,167.495,386.863,170.15,384.676,175.618z"/>
	<path style="fill:#434A54;" d="M409.846,234.445c-2.188,5.469,0.469,11.672,5.922,13.867c5.469,2.188,11.688-0.469,13.875-5.938
		s-0.469-11.671-5.938-13.859C418.236,226.322,412.033,228.977,409.846,234.445z"/>
	<path style="fill:#434A54;" d="M417.58,184.751c-2.188,5.469,0.469,11.68,5.938,13.867c5.469,2.195,11.672-0.461,13.859-5.929
		c2.188-5.469-0.469-11.68-5.922-13.867C425.986,176.635,419.767,179.29,417.58,184.751z"/>
</g>
</svg>