<?xml version="1.0" standalone="no"?>
<!DOCTYPE svg PUBLIC "-//W3C//DTD SVG 20010904//EN"
 "http://www.w3.org/TR/2001/REC-SVG-20010904/DTD/svg10.dtd">
<svg version="1.0" xmlns="http://www.w3.org/2000/svg"
 width="1280.000000pt" height="1124.000000pt" viewBox="0 0 1280.000000 1124.000000"
 preserveAspectRatio="xMidYMid meet">
<g transform="translate(0.000000,1124.000000) scale(0.100000,-0.100000)"
fill="#000000" stroke="none">
<path d="M9982 10916 l-942 -301 -263 -295 c-145 -162 -719 -806 -1276 -1430
-558 -624 -1015 -1140 -1018 -1147 -4 -11 899 -1035 922 -1046 8 -3 2842 2515
2925 2599 12 12 130 367 319 961 166 518 301 947 301 953 0 5 -6 10 -12 9 -7
-1 -437 -137 -956 -303z"/>
<path d="M1850 10940 c0 -12 585 -1853 599 -1886 5 -11 1131 -1022 2502 -2245
1371 -1223 2964 -2644 3539 -3157 575 -514 1051 -936 1058 -939 14 -6 511 480
533 520 9 15 -3 33 -68 105 -44 48 -284 317 -534 597 -427 479 -794 890 -3404
3815 -572 641 -1322 1482 -1668 1870 -346 388 -636 710 -645 717 -14 10 -1891
613 -1908 613 -2 0 -4 -5 -4 -10z"/>
<path d="M4174 5162 c-529 -592 -1075 -1205 -1214 -1360 l-253 -284 269 -269
c148 -148 272 -268 276 -267 19 7 2767 2465 2767 2475 1 14 -857 783 -873 783
-6 0 -444 -485 -972 -1078z"/>
<path d="M1737 4772 c-180 -180 -327 -332 -327 -337 0 -6 232 -242 515 -525
l515 -515 145 145 144 145 -328 703 c-181 386 -330 705 -333 707 -2 2 -151
-143 -331 -323z"/>
<path d="M10690 4738 c-22 -46 -170 -362 -329 -703 l-290 -620 144 -145 145
-145 515 515 c283 283 515 519 515 525 0 12 -641 655 -653 655 -4 0 -26 -37
-47 -82z"/>
<path d="M1660 2424 l-865 -866 -387 -259 c-214 -143 -388 -263 -388 -267 0
-9 733 -742 743 -742 4 0 120 170 258 378 l251 377 874 875 874 875 -248 248
-247 247 -865 -866z"/>
<path d="M10027 2772 c-130 -130 -237 -242 -237 -247 0 -6 387 -397 861 -870
l861 -860 259 -387 c143 -214 262 -388 267 -388 10 0 742 733 742 743 0 4
-172 122 -382 261 l-383 254 -865 866 c-476 476 -870 866 -875 866 -6 0 -117
-107 -248 -238z"/>
<path d="M3269 2854 l-144 -144 515 -515 c283 -283 519 -515 525 -515 6 0 158
148 339 329 l329 329 -34 15 c-19 8 -324 151 -679 317 -355 166 -659 308 -676
316 l-30 13 -145 -145z"/>
<path d="M8690 2404 c-382 -178 -699 -329 -704 -334 -7 -7 98 -119 314 -335
179 -179 329 -325 335 -325 6 0 242 232 525 515 l515 515 -145 144 -145 145
-695 -325z"/>
</g>
</svg>
